<?xml version="1.0" standalone="no"?>
<!DOCTYPE svg PUBLIC "-//W3C//DTD SVG 20010904//EN"
 "http://www.w3.org/TR/2001/REC-SVG-20010904/DTD/svg10.dtd">
<svg version="1.0" xmlns="http://www.w3.org/2000/svg"
 width="1025.000000pt" height="1025.000000pt" viewBox="0 0 1025.000000 1025.000000"
 preserveAspectRatio="xMidYMid meet">
<metadata>
Created by potrace 1.14, written by Peter Selinger 2001-2017
</metadata>
<g transform="translate(0.000000,1025.000000) scale(0.100000,-0.100000)"
fill="#000000" stroke="none">
<path d="M4875 10239 c-27 -4 -79 -11 -115 -14 -36 -3 -76 -7 -90 -10 -14 -2
-50 -6 -80 -10 -141 -16 -283 -39 -385 -61 -38 -8 -79 -16 -90 -18 -11 -2 -38
-9 -60 -14 -22 -6 -51 -13 -65 -16 -133 -24 -628 -187 -795 -262 -22 -10 -42
-18 -45 -18 -16 -2 -207 -91 -361 -168 -373 -187 -675 -387 -980 -649 -201
-173 -478 -455 -625 -638 -10 -13 -24 -28 -30 -35 -47 -51 -329 -439 -369
-508 -5 -9 -42 -70 -81 -135 -39 -65 -83 -139 -98 -165 -32 -57 -196 -384
-196 -391 0 -3 -13 -34 -29 -69 -15 -35 -38 -90 -51 -123 -12 -33 -30 -80 -40
-105 -58 -143 -170 -563 -204 -760 -2 -14 -7 -41 -10 -60 -9 -54 -15 -89 -22
-139 -3 -25 -8 -57 -10 -71 -2 -14 -7 -50 -10 -80 -3 -30 -7 -71 -9 -90 -26
-243 -27 -885 -1 -1040 2 -14 7 -56 11 -95 4 -38 8 -77 9 -85 2 -8 6 -40 11
-70 4 -30 9 -64 11 -75 2 -10 6 -35 9 -55 5 -37 7 -46 25 -140 26 -134 80
-347 126 -499 216 -718 621 -1407 1149 -1959 91 -95 222 -225 261 -259 12 -10
54 -47 94 -83 40 -36 82 -72 94 -80 12 -8 30 -23 41 -33 40 -37 283 -216 400
-294 251 -167 558 -336 815 -448 47 -20 99 -43 115 -50 279 -124 831 -294
1038 -320 28 -4 59 -8 69 -10 75 -15 277 -20 773 -20 655 0 752 5 995 50 45 9
203 49 333 84 506 140 968 341 1412 615 109 68 285 184 295 196 3 3 35 27 71
52 67 48 260 202 326 261 159 141 329 309 438 431 39 43 75 84 80 90 32 35
158 190 196 241 24 33 47 62 50 65 12 9 236 345 263 395 16 28 32 55 36 60 33
41 212 395 273 540 139 333 253 742 322 1160 11 63 15 91 20 130 3 22 7 54 10
70 2 17 7 57 10 90 3 33 8 74 10 90 26 183 26 891 0 968 -2 6 -7 39 -10 72 -7
70 -8 78 -29 205 -23 138 -25 148 -42 225 -9 39 -18 81 -20 95 -3 14 -23 93
-45 175 -22 83 -42 157 -44 165 -2 8 -22 71 -45 140 -138 409 -336 825 -564
1184 -127 200 -339 477 -505 661 -124 137 -397 400 -521 501 -19 16 -37 31
-40 34 -3 3 -25 21 -50 40 -25 19 -47 37 -50 40 -3 3 -21 17 -40 30 -19 13
-37 27 -40 30 -6 8 -152 110 -245 172 -318 212 -734 418 -1129 559 -363 131
-866 241 -1251 274 -38 3 -88 8 -110 10 -22 3 -80 7 -130 10 -49 4 -112 8
-140 11 -115 9 -243 11 -290 3z m715 -483 c14 -2 29 -5 35 -5 5 -1 -13 -16
-40 -35 -50 -33 -434 -256 -441 -256 -3 0 -64 -39 -137 -87 -485 -317 -854
-678 -1160 -1135 -267 -398 -500 -916 -572 -1273 -31 -153 -34 -171 -40 -220
-3 -22 -10 -74 -15 -115 -9 -70 -13 -121 -25 -280 -6 -94 -18 -358 -31 -730
-4 -102 -8 -205 -9 -230 -2 -25 -3 -91 -4 -147 -1 -57 -4 -103 -9 -103 -4 0
-14 15 -21 33 -8 17 -33 73 -56 122 -206 442 -256 583 -309 861 -32 167 -27
689 9 989 52 433 297 966 672 1465 91 121 83 111 202 252 171 205 404 440 591
598 36 30 67 57 70 60 5 5 117 97 218 178 22 19 50 42 62 52 20 17 48 18 503
14 265 -2 493 -6 507 -8z m992 -210 c213 -80 861 -413 1048 -539 76 -52 488
-360 525 -394 11 -10 47 -40 80 -68 81 -66 128 -115 121 -122 -5 -6 -162 9
-236 22 -92 15 -344 55 -385 60 -27 4 -61 8 -75 11 -180 29 -744 26 -970 -6
-36 -5 -85 -12 -110 -15 -118 -14 -387 -75 -540 -122 -47 -15 -89 -27 -95 -29
-51 -11 -300 -108 -406 -157 -151 -70 -176 -83 -274 -137 -237 -133 -431 -268
-630 -440 -48 -42 -314 -307 -370 -370 -22 -25 -70 -81 -105 -125 -66 -81 -85
-103 -117 -142 -10 -11 -25 -31 -33 -43 -8 -12 -25 -34 -38 -48 -12 -15 -97
-141 -189 -280 -91 -138 -168 -251 -169 -249 -4 4 31 230 51 327 1 3 5 25 9
50 23 132 98 389 161 551 71 181 206 456 266 541 11 14 19 29 19 32 0 4 5 12
10 19 6 7 35 50 66 97 56 83 177 245 229 305 103 118 135 154 213 232 49 48
115 111 148 140 32 28 75 65 94 83 59 52 249 193 360 267 198 133 468 275 700
369 87 35 564 204 577 204 2 0 31 -11 65 -24z m-3088 -117 c-29 -58 -197 -288
-224 -309 -31 -23 -313 -425 -414 -590 -248 -401 -440 -844 -505 -1163 -17
-81 -24 -130 -37 -252 -12 -124 -19 -311 -19 -555 0 -246 4 -344 19 -470 15
-128 83 -356 161 -547 162 -391 399 -781 705 -1161 129 -160 136 -168 244
-287 140 -154 176 -202 176 -234 0 -18 -6 -21 -39 -21 -48 0 -224 52 -426 127
-162 60 -185 70 -345 145 -394 188 -762 477 -1035 815 -85 105 -264 368 -320
468 -132 236 -261 521 -342 750 -13 39 -28 79 -33 90 -11 23 -78 232 -85 261
-2 10 -34 117 -70 237 l-66 217 72 138 c134 255 161 303 248 437 109 168 314
441 436 580 15 17 52 59 83 95 67 76 374 386 448 450 28 25 66 58 84 74 144
126 363 275 605 411 211 118 572 305 591 305 5 1 27 9 49 20 49 23 62 13 39
-31z m3996 -1343 c63 -4 133 -8 155 -10 63 -7 158 -18 180 -22 10 -2 37 -6 60
-10 75 -11 300 -72 465 -127 327 -109 558 -211 626 -276 236 -228 607 -1095
719 -1681 33 -171 40 -233 52 -425 15 -237 7 -975 -11 -1085 -3 -14 -7 -52
-11 -85 -13 -134 -39 -231 -64 -240 -20 -8 -51 29 -51 61 0 45 -64 193 -192
449 -84 165 -89 175 -107 198 -8 9 -11 17 -7 17 4 0 -2 13 -13 29 -12 16 -21
32 -21 35 0 11 -203 351 -263 441 -91 136 -188 263 -302 394 -41 48 -281 288
-330 331 -22 19 -65 55 -95 80 -30 25 -57 47 -60 50 -31 33 -417 300 -434 300
-2 0 -34 18 -71 41 -93 56 -368 188 -505 242 -306 120 -713 226 -975 253 -22
2 -56 6 -75 9 -202 27 -685 28 -1000 0 -19 -1 -71 -6 -115 -9 -169 -15 -191
-17 -230 -22 -22 -3 -59 -9 -83 -14 -82 -15 -69 12 71 145 166 159 196 186
302 272 187 150 359 260 576 366 75 37 139 67 142 67 3 0 18 5 34 11 204 83
496 160 718 189 50 6 104 13 121 15 17 3 80 7 140 11 60 3 110 7 111 8 5 4
436 -2 543 -8z m-2155 -1520 c17 -3 41 -9 55 -12 14 -3 36 -8 50 -10 152 -27
433 -154 574 -260 245 -185 452 -465 521 -705 46 -162 59 -263 59 -454 -1
-477 -164 -838 -519 -1150 -51 -45 -231 -161 -323 -208 -80 -41 -162 -71 -227
-83 -14 -2 -37 -7 -52 -10 -16 -4 -165 -8 -333 -10 -430 -4 -490 8 -735 145
-145 81 -218 136 -340 256 -225 220 -355 488 -411 845 -10 67 -12 299 -2 382
64 570 446 1039 992 1218 38 12 119 33 180 45 96 20 136 23 296 20 102 -1 199
-5 215 -9z m1385 -68 c353 -106 679 -256 960 -441 101 -66 199 -135 210 -147
3 -3 37 -31 76 -62 175 -140 386 -353 529 -536 5 -7 15 -18 20 -25 30 -35 149
-203 197 -277 280 -435 477 -892 658 -1528 l51 -183 -42 -82 c-129 -250 -158
-306 -180 -347 -32 -59 -111 -192 -122 -205 -4 -5 -31 -46 -60 -90 -278 -426
-733 -901 -1188 -1242 -86 -65 -307 -215 -370 -252 -212 -125 -448 -245 -471
-240 -11 3 25 64 134 229 325 487 485 808 629 1260 90 282 141 520 184 855 24
186 24 642 1 785 -3 14 -7 48 -10 75 -3 28 -8 59 -10 70 -2 11 -7 40 -11 65
-12 78 -82 340 -123 460 -69 203 -181 455 -269 610 -119 209 -246 393 -404
590 -65 80 -132 161 -151 181 -18 20 -53 58 -77 85 -24 27 -103 111 -175 188
-72 76 -136 144 -141 150 -6 6 -24 28 -40 49 -49 65 -7 66 195 5z m-6104 -378
c24 -43 69 -150 128 -304 101 -262 199 -462 331 -673 30 -48 59 -97 64 -108 5
-12 16 -27 25 -34 9 -7 16 -20 16 -27 0 -8 4 -14 8 -14 4 0 16 -15 27 -32 36
-62 206 -278 320 -407 55 -62 240 -245 313 -310 115 -103 383 -298 487 -357
11 -6 43 -24 70 -40 270 -160 709 -323 1060 -394 22 -4 74 -15 115 -23 41 -8
93 -19 115 -23 22 -4 47 -9 55 -10 8 -2 31 -5 50 -8 19 -3 44 -7 55 -9 17 -4
54 -10 145 -22 16 -3 143 -24 175 -29 116 -21 152 -29 169 -38 19 -11 19 -11
-3 -29 -13 -10 -57 -30 -100 -43 -77 -24 -363 -91 -433 -101 -21 -3 -53 -7
-70 -10 -18 -2 -69 -11 -113 -19 -44 -9 -91 -17 -105 -20 -14 -2 -65 -14 -115
-27 -209 -51 -260 -110 -224 -255 17 -68 71 -109 162 -125 64 -10 215 -8 332
5 17 2 59 7 95 10 36 4 72 9 81 12 10 3 30 6 46 8 202 26 830 203 1043 295 19
8 40 16 46 17 7 1 103 40 215 87 305 127 452 176 465 155 16 -25 -159 -219
-386 -428 -57 -52 -112 -103 -122 -112 -15 -15 -66 -57 -209 -173 -124 -99
-394 -253 -579 -328 -168 -68 -434 -145 -590 -171 -53 -8 -92 -15 -120 -21
-14 -3 -50 -7 -80 -11 -30 -3 -65 -7 -78 -9 -130 -22 -538 -22 -665 0 -12 2
-44 7 -72 10 -43 5 -151 22 -250 41 -88 16 -331 79 -480 124 -297 90 -497 173
-630 262 -66 44 -235 211 -235 233 0 7 -3 15 -8 17 -4 2 -23 28 -42 57 -134
211 -381 757 -460 1016 -7 22 -16 50 -21 63 -23 61 -82 325 -94 422 -3 25 -8
56 -10 70 -4 24 -14 118 -20 190 -24 264 -24 1079 0 1350 19 216 47 338 76
328 6 -2 17 -15 25 -28z m6530 -1115 c15 -33 49 -105 74 -160 103 -220 214
-542 250 -725 6 -30 14 -66 16 -80 3 -14 13 -82 23 -153 22 -164 20 -575 -4
-682 -2 -11 -7 -46 -10 -78 -4 -31 -18 -110 -31 -174 -14 -65 -27 -129 -30
-143 -31 -151 -149 -504 -215 -648 -16 -35 -29 -66 -29 -69 0 -11 -170 -344
-213 -416 -26 -43 -47 -81 -47 -83 0 -3 -8 -17 -19 -32 -10 -15 -51 -76 -91
-137 -201 -304 -482 -631 -707 -823 -82 -69 -113 -87 -163 -96 -181 -30 -326
-50 -450 -61 -30 -3 -73 -7 -95 -10 -22 -2 -76 -7 -119 -11 -44 -3 -88 -7 -99
-10 -16 -3 -17 -1 -5 13 12 15 76 76 139 134 280 255 509 483 649 648 25 29
58 67 73 84 106 121 353 469 473 667 196 323 398 908 459 1325 9 64 26 197 29
240 26 287 34 458 51 1085 4 140 9 293 10 340 2 47 4 114 5 150 l2 65 23 -50
c13 -27 36 -77 51 -110z m-550 -1257 c-4 -35 -16 -117 -27 -183 -11 -66 -22
-133 -25 -150 -2 -16 -9 -52 -14 -80 -16 -80 -19 -97 -25 -138 -4 -22 -10 -49
-15 -61 -4 -13 -11 -39 -14 -58 -3 -20 -19 -85 -35 -145 -83 -304 -190 -567
-322 -792 -119 -203 -193 -308 -369 -521 -96 -117 -362 -389 -480 -492 -36
-32 -76 -67 -90 -79 -162 -141 -332 -263 -673 -481 l-149 -95 -66 18 c-239 64
-580 169 -647 199 -11 5 -69 29 -130 53 -60 25 -145 61 -188 81 -43 20 -81 36
-83 36 -7 0 -348 172 -414 209 -30 17 -62 34 -70 38 -65 29 -488 297 -510 323
-3 3 -25 21 -50 39 -55 42 -210 197 -210 211 0 12 13 10 145 -24 55 -14 116
-28 135 -31 19 -3 53 -10 75 -15 60 -13 176 -28 335 -45 311 -32 905 -17 1215
31 164 25 465 114 640 189 61 26 89 38 95 40 3 0 52 24 110 52 269 131 494
279 740 488 95 80 351 346 425 440 17 21 35 43 41 49 20 21 181 241 220 301
21 33 42 62 47 63 4 2 7 8 7 14 0 6 11 26 25 44 14 18 25 35 25 38 0 20 310
496 323 496 5 0 6 -28 3 -62z"/>
<path d="M8155 7172 c-80 -50 -158 -159 -157 -222 1 -84 42 -125 307 -304 105
-71 239 -165 299 -209 60 -43 120 -84 133 -90 13 -5 23 -13 23 -17 0 -3 47
-30 104 -59 121 -61 168 -68 232 -32 83 47 124 167 84 249 -8 15 -46 59 -85
97 -181 179 -703 536 -861 590 -54 18 -43 19 -79 -3z"/>
<path d="M1069 4033 c-98 -86 -159 -168 -159 -216 0 -55 169 -236 369 -397 24
-19 60 -48 81 -65 47 -39 96 -75 125 -95 12 -8 62 -42 111 -76 79 -54 278
-174 289 -174 2 0 45 -20 94 -44 135 -66 207 -88 294 -89 95 -1 137 60 151
221 6 65 -62 130 -221 212 -86 44 -306 173 -347 203 -6 4 -63 43 -126 87 -136
95 -148 105 -305 235 -219 183 -285 235 -299 235 -7 0 -33 -17 -57 -37z"/>
</g>
</svg>
