<svg width="406" height="128" viewBox="0 0 406 128" fill="none" xmlns="http://www.w3.org/2000/svg">
<path d="M0.232 80.058H20.692V99.03C20.692 106.656 22.366 109.446 26.83 109.446C31.294 109.446 33.34 106.284 33.34 99.03V1.93799H54.73V96.24C54.73 110.748 53.986 114.282 50.266 119.118C45.988 124.698 37.804 127.86 27.388 127.86C7.858 127.86 0.232 120.234 0.232 100.704V80.058ZM126.613 40.44V87.498C126.613 106.284 125.125 112.608 119.545 118.932C114.523 124.698 105.967 127.86 95.5512 127.86C85.1352 127.86 76.5792 124.698 71.5572 118.932C65.9772 112.608 64.4892 106.284 64.4892 87.498V40.44C64.4892 21.654 65.9772 15.33 71.5572 9.006C76.5792 3.24 85.1352 0.0779915 95.5512 0.0779915C105.967 0.0779915 114.523 3.24 119.545 9.006C125.125 15.33 126.613 21.654 126.613 40.44ZM85.8792 40.812V87.126C85.8792 105.726 87.9252 110.562 95.5512 110.562C103.177 110.562 105.223 105.726 105.223 87.126V40.812C105.223 22.212 103.177 17.376 95.5512 17.376C87.9252 17.376 85.8792 22.212 85.8792 40.812ZM157.669 1.93799V126H136.279V1.93799H157.669ZM233.9 126H210.836L196.142 75.966C195.212 72.804 193.724 67.224 191.678 59.226C189.632 50.856 190.004 52.53 186.098 35.232C186.47 39.882 186.284 37.464 187.214 51.042C187.214 52.158 187.4 57.366 187.772 64.62C187.958 71.502 188.144 76.338 188.144 77.64L188.702 126H168.8V1.93799H192.05L206.744 52.716C209.534 62.202 212.324 74.106 215.486 89.73C215.3 82.29 215.3 85.08 215.3 80.802C214.928 71.688 214.928 72.99 214.928 67.968C214.742 63.318 214.742 57.366 214.556 52.716L213.998 1.93799H233.9V126ZM313.27 1.93799H334.66V89.358C334.66 105.354 333.544 111.12 329.452 116.886C324.616 123.768 314.944 127.86 303.598 127.86C292.066 127.86 282.394 123.768 277.558 116.886C273.466 111.12 272.35 105.354 272.35 89.358V1.93799H293.74V91.776C293.74 105.726 296.158 110.562 303.598 110.562C310.852 110.562 313.27 105.912 313.27 91.776V1.93799ZM401.354 43.044H380.894V35.79C380.894 23.7 377.918 18.492 371.408 18.492C365.828 18.492 362.294 22.584 362.294 29.28C362.294 36.348 364.898 40.812 374.012 48.624L386.288 59.226C402.284 72.99 405.818 79.5 405.818 95.124C405.818 116.7 394.844 127.86 373.826 127.86C351.506 127.86 341.648 117.444 341.648 93.822V80.43H362.108V90.474C362.108 102.936 366.014 109.446 373.64 109.446C380.522 109.446 384.056 104.982 384.056 96.24C384.056 88.056 382.196 84.708 374.198 77.454L362.48 67.224C344.252 51.414 341.834 47.136 341.834 30.582C341.834 10.68 352.25 0.0779915 371.594 0.0779915C392.054 0.0779915 401.354 10.122 401.354 32.628V43.044Z" fill="white"/>
</svg>
