<svg width="443" height="443" viewBox="0 0 443 443" fill="none" xmlns="http://www.w3.org/2000/svg">
<path d="M196.947 2.1055C164.182 5.89543 125.673 20.4235 97.1631 39.5836C62.0577 63.1654 31.4204 101.275 15.0379 141.49C-6.02529 193.918 -4.96149 259.399 18.2293 311.827C44.8242 372.255 97.3758 417.102 164.821 437.105C183.331 442.368 187.799 443 220.138 443C252.052 443 257.158 442.368 276.519 437.105C342.049 419.208 395.452 374.571 423.323 315.195C438.429 282.77 446.089 235.396 441.833 200.234C429.281 93.2742 346.304 12.0014 239.712 1.89495C227.159 0.842194 216.096 -1.18017e-05 214.819 -1.18017e-05C213.755 0.21054 205.67 1.05274 196.947 2.1055ZM243.542 21.6868C243.542 22.1079 236.521 26.3189 228.223 30.951C195.245 49.0584 170.14 75.3774 154.395 107.802C141.63 133.911 138.651 147.596 137.375 187.18L136.098 221.921L129.29 207.183C119.29 185.285 117.375 175.389 118.439 149.702C119.29 131.805 120.779 124.015 125.46 111.592C136.098 84.2205 159.076 53.6906 186.735 30.951L199.075 20.8446H221.415C233.542 20.8446 243.542 21.2657 243.542 21.6868ZM300.136 37.4781C309.284 41.8997 321.412 48.2162 326.731 51.5851C337.794 58.5333 362.9 78.3251 361.836 79.1673C361.41 79.5884 352.262 78.3251 341.198 76.4301C287.157 67.1659 231.627 83.5889 194.394 119.804C185.458 128.436 173.118 143.175 167.161 152.439L156.097 169.283L157.587 159.808C166.097 103.17 206.734 56.0066 264.392 35.3726C273.328 32.2143 281.413 29.4772 282.051 29.4772C282.689 29.2666 290.774 32.846 300.136 37.4781ZM143.332 46.5318C127.162 66.5342 114.397 87.7999 106.95 107.381C101.418 122.12 100.142 129.068 99.2907 149.07C98.6524 164.23 99.2907 177.284 100.993 184.864C106.524 209.499 124.396 240.45 148.225 266.347C160.565 279.612 159.076 280.244 135.673 271.822C88.0144 254.557 59.2919 220.447 41.2073 159.177L36.3138 142.754L43.1221 129.7C56.7388 103.591 87.3761 69.4819 110.141 55.1644C123.332 46.7424 148.438 33.6882 151.417 33.4777C152.906 33.4777 149.289 39.3731 143.332 46.5318ZM361.198 100.854C372.687 104.644 384.176 109.487 386.941 111.592C397.579 119.804 415.026 160.44 419.919 188.022C423.962 209.92 422.26 265.084 417.792 265.084C416.728 265.084 415.877 264.031 415.877 262.768C415.877 257.715 398.43 224.237 388.005 209.288C354.602 161.282 297.157 134.121 236.308 137.279C223.329 138.122 209.926 139.174 206.309 139.806C200.139 141.069 200.564 140.648 211.415 130.331C240.137 103.17 272.264 91.8004 315.88 93.2742C336.517 93.9059 343.751 95.1692 361.198 100.854ZM248.861 164.862C262.052 170.757 273.328 181.916 279.923 194.971C287.583 210.341 287.157 234.554 279.072 250.767C272.69 263.61 263.328 272.875 249.286 280.244C241.839 284.244 236.946 285.086 221.202 285.086C203.968 285.086 200.99 284.455 190.777 278.77C169.501 267.19 157.587 246.556 157.587 221.921C157.587 174.758 205.245 145.07 248.861 164.862ZM305.88 167.599C353.964 186.97 386.516 226.974 404.175 288.666L407.579 300.667L400.771 313.932C382.686 349.726 346.73 385.309 309.71 403.837C304.816 406.575 300.987 407.838 301.625 406.785C302.263 405.943 307.157 398.574 312.476 390.573C340.56 348.462 351.198 293.509 339.496 251.819C331.624 223.395 317.582 200.024 293.54 174.758C279.072 159.598 278.86 159.387 285.668 160.861C289.498 161.703 298.646 164.651 305.88 167.599ZM32.0587 191.391C43.1221 221.921 66.3129 252.662 91.2058 270.137C113.546 286.139 135.885 294.14 173.118 299.615C190.564 302.352 191.203 302.562 185.033 305.089C181.629 306.352 172.905 308.458 165.884 309.721C141.63 313.511 137.162 315.406 137.162 320.67C137.162 329.092 142.055 331.197 158.225 329.513C176.31 328.039 203.33 320.249 226.308 310.353C236.095 306.142 244.605 303.194 245.244 304.036C246.095 304.878 239.074 312.879 229.499 321.722C208.011 342.356 188.862 352.252 160.778 357.095C137.375 361.306 114.822 359.201 87.1634 350.568C58.6536 341.725 52.6963 336.672 40.9946 312.248C25.2504 279.612 21.6334 263.821 21.4207 225.079C21.2079 193.707 23.1228 174.758 26.1014 177.705C26.7397 178.337 29.5055 184.654 32.0587 191.391ZM323.752 268.032C332.05 310.563 313.114 365.728 276.307 405.732C269.711 413.102 262.052 419.839 259.711 420.892C257.158 421.734 248.01 423.208 239.286 424.05L223.329 425.524L241.839 408.259C262.477 389.099 282.902 361.096 290.349 341.514C301.199 313.09 303.54 299.193 304.816 258.768L305.88 219.816L313.114 235.396C317.156 243.818 322.05 258.557 323.752 268.032ZM282.902 296.877C276.519 333.934 264.818 357.095 239.712 383.414C229.287 394.152 215.032 406.154 205.245 412.26L188.437 422.998L170.14 417.734C142.694 409.733 100.993 387.414 88.8654 374.15C85.0358 369.939 85.2485 369.728 89.291 370.991C104.397 375.202 122.694 377.097 144.821 376.255C165.246 375.624 173.331 374.15 187.16 369.518C223.329 357.306 251.201 333.724 273.115 296.877C279.498 286.35 285.03 277.928 285.455 278.349C285.881 278.77 284.604 287.192 282.902 296.877Z" fill="white"/>
<path d="M349.283 136.227C343.538 142.333 345.028 146.754 354.815 152.86C359.708 156.018 368.644 162.335 374.601 166.546C380.558 170.968 387.367 174.547 389.92 174.547C395.664 174.547 399.707 167.599 396.941 162.335C393.324 155.808 359.921 132.437 353.964 132.437C353.325 132.437 351.198 134.121 349.283 136.227Z" fill="white"/>
<path d="M43.5477 271.401C41.2073 273.717 39.2925 276.875 39.2925 278.138C39.2925 283.402 64.8236 304.668 80.5678 312.669C98.2268 321.722 103.546 321.301 104.822 310.774C105.461 306.142 103.759 304.457 90.993 297.93C83.1209 293.719 70.5681 285.087 63.1215 278.77C55.675 272.453 49.2922 267.19 48.6539 267.19C48.2284 267.19 45.888 269.085 43.5477 271.401Z" fill="white"/>
</svg>
